<?xml version="1.0" encoding="utf-8"?>
<!-- Generator: Adobe Illustrator 16.0.0, SVG Export Plug-In . SVG Version: 6.00 Build 0)  -->
<!DOCTYPE svg PUBLIC "-//W3C//DTD SVG 1.1//EN" "http://www.w3.org/Graphics/SVG/1.1/DTD/svg11.dtd">
<svg version="1.1" id="Layer_1" xmlns="http://www.w3.org/2000/svg" xmlns:xlink="http://www.w3.org/1999/xlink" x="0px" y="0px"
	 width="24px" height="24px" viewBox="0 0 24 24" enable-background="new 0 0 24 24" xml:space="preserve">
<title>Stockholm-icons / Home / Clock</title>
<desc>Created with Sketch.</desc>
<g id="Stockholm-icons-_x2F_-Home-_x2F_-Clock">
	<rect id="bound" fill="none" width="24" height="24"/>
	<path id="Mask" opacity="0.9" fill="#FFFFFF" enable-background="new    " d="M12,22c-4.971,0-9-4.029-9-9c0-4.971,4.029-9,9-9
		c4.971,0,9,4.029,9,9C21,17.971,16.971,22,12,22z"/>
	<path id="Path-107" d="M11.963,7.5h0.084c0.257,0,0.473,0.195,0.498,0.45L13,12.5l3.248,1.855c0.156,0.09,0.252,0.256,0.252,0.435
		V15c0,0.211-0.171,0.382-0.382,0.382c-0.034,0-0.067-0.005-0.101-0.013l-4.62-1.26c-0.231-0.064-0.385-0.282-0.367-0.521
		l0.433-5.626C11.484,7.701,11.702,7.5,11.963,7.5z"/>
</g>
</svg>
