<?xml version="1.0" encoding="utf-8"?>
<!-- Generator: Adobe Illustrator 16.0.0, SVG Export Plug-In . SVG Version: 6.00 Build 0)  -->
<!DOCTYPE svg PUBLIC "-//W3C//DTD SVG 1.1//EN" "http://www.w3.org/Graphics/SVG/1.1/DTD/svg11.dtd">
<svg version="1.1" id="Layer_1" xmlns="http://www.w3.org/2000/svg" xmlns:xlink="http://www.w3.org/1999/xlink" x="0px" y="0px"
	 width="24px" height="24px" viewBox="0 0 24 24" enable-background="new 0 0 24 24" xml:space="preserve">
<title>Stockholm-icons / Files / File-done</title>
<desc>Created with Sketch.</desc>
<g id="Stockholm-icons-_x2F_-Files-_x2F_-File-done">
	<polygon id="Shape" fill="none" points="0,0 24,0 24,24 0,24 	"/>
	<path id="Combined-Shape" fill="#FFFFFF" enable-background="new    " d="M5.857,2h7.879c0.355,0,0.697,0.125,0.969,0.354
		l4.764,4.029C19.806,6.669,20,7.088,20,7.529v12.555C20,21.874,19.979,22,18.143,22H5.857C4.021,22,4,21.874,4,20.084V3.917
		C4,2.126,4.021,2,5.857,2z M10.875,15.75c0.24,0,0.479-0.096,0.671-0.287l3.833-3.834c0.384-0.383,0.384-0.958,0-1.341
		c-0.383-0.383-0.958-0.383-1.342,0l-3.162,3.163l-1.246-1.246c-0.335-0.383-0.958-0.383-1.342,0c-0.383,0.384-0.383,0.958,0,1.342
		l1.917,1.917C10.396,15.654,10.635,15.75,10.875,15.75z"/>
	<path id="check-path" d="M10.875,15.75c-0.24,0-0.479-0.096-0.671-0.287l-1.917-1.917c-0.383-0.384-0.383-0.958,0-1.342
		c0.383-0.383,1.006-0.383,1.342,0l1.246,1.246l3.162-3.163c0.384-0.383,0.959-0.383,1.342,0c0.384,0.383,0.384,0.958,0,1.341
		l-3.833,3.834C11.354,15.654,11.115,15.75,10.875,15.75z"/>
</g>
</svg>
