<?xml version="1.0" encoding="utf-8"?>
<!-- Generator: Adobe Illustrator 16.0.0, SVG Export Plug-In . SVG Version: 6.00 Build 0)  -->
<!DOCTYPE svg PUBLIC "-//W3C//DTD SVG 1.1//EN" "http://www.w3.org/Graphics/SVG/1.1/DTD/svg11.dtd">
<svg version="1.1" id="Layer_1" xmlns="http://www.w3.org/2000/svg" xmlns:xlink="http://www.w3.org/1999/xlink" x="0px" y="0px"
	 width="24px" height="24px" viewBox="0 0 24 24" enable-background="new 0 0 24 24" xml:space="preserve">
<title>Stockholm-icons / Layout / Layout-grid</title>
<desc>Created with Sketch.</desc>
<g id="Stockholm-icons-_x2F_-Layout-_x2F_-Layout-grid">
	<rect id="bound" x="-1" fill="none" width="24" height="24"/>
	<path id="Combined-Shape" fill="#FFFFFF" d="M4,11h2c0.552,0,1,0.448,1,1v2c0,0.553-0.448,1-1,1H4c-0.552,0-1-0.447-1-1v-2
		C3,11.448,3.448,11,4,11z M9,6h2c0.553,0,1,0.448,1,1v2c0,0.552-0.447,1-1,1H9c-0.552,0-1-0.448-1-1V7C8,6.448,8.448,6,9,6z M9,11
		h2c0.553,0,1,0.448,1,1v2c0,0.553-0.447,1-1,1H9c-0.552,0-1-0.447-1-1v-2C8,11.448,8.448,11,9,11z M14,6h2c0.553,0,1,0.448,1,1v2
		c0,0.552-0.447,1-1,1h-2c-0.553,0-1-0.448-1-1V7C13,6.448,13.447,6,14,6z M14,11h2c0.553,0,1,0.448,1,1v2c0,0.553-0.447,1-1,1h-2
		c-0.553,0-1-0.447-1-1v-2C13,11.448,13.447,11,14,11z M4,16h2c0.552,0,1,0.447,1,1v2c0,0.553-0.448,1-1,1H4c-0.552,0-1-0.447-1-1
		v-2C3,16.447,3.448,16,4,16z M9,16h2c0.553,0,1,0.447,1,1v2c0,0.553-0.447,1-1,1H9c-0.552,0-1-0.447-1-1v-2C8,16.447,8.448,16,9,16
		z M14,16h2c0.553,0,1,0.447,1,1v2c0,0.553-0.447,1-1,1h-2c-0.553,0-1-0.447-1-1v-2C13,16.447,13.447,16,14,16z M17.25,1h2
		c0.553,0,1,0.301,1,0.672v1.344c0,0.372-0.447,0.672-1,0.672h-2c-0.553,0-1-0.3-1-0.672V1.672C16.25,1.301,16.697,1,17.25,1z
		 M15.25,1h2c0.553,0,1,0.301,1,0.672v1.344c0,0.371-0.447,0.672-1,0.672h-2c-0.553,0-1-0.301-1-0.672V1.672
		C14.25,1.301,14.697,1,15.25,1z M4,6h2c0.553,0,1,0.448,1,1v2c0,0.553-0.447,1-1,1H4c-0.552,0-1-0.447-1-1V7C3,6.448,3.448,6,4,6z
		 M13.25,1h2c0.553,0,1,0.301,1,0.672v1.344c0,0.371-0.447,0.672-1,0.672h-2c-0.553,0-1-0.301-1-0.672V1.672
		C12.25,1.301,12.697,1,13.25,1z M11.25,1h2c0.553,0,1,0.301,1,0.672v1.344c0,0.371-0.447,0.672-1,0.672h-2
		c-0.553,0-1-0.301-1-0.672V1.672C10.25,1.301,10.697,1,11.25,1z M9.25,1h2c0.553,0,1,0.301,1,0.672v1.344
		c0,0.371-0.447,0.672-1,0.672h-2c-0.553,0-1-0.301-1-0.672V1.672C8.25,1.301,8.697,1,9.25,1z M7.25,1h2c0.553,0,1,0.301,1,0.672
		v1.344c0,0.371-0.447,0.672-1,0.672h-2c-0.553,0-1-0.301-1-0.672V1.672C6.25,1.301,6.697,1,7.25,1z M5.25,1h2
		c0.553,0,1,0.301,1,0.672v1.344c0,0.371-0.447,0.672-1,0.672h-2c-0.553,0-1-0.301-1-0.672V1.672C4.25,1.301,4.697,1,5.25,1z
		 M3.25,1h2c0.553,0,1,0.301,1,0.672v1.344c0,0.371-0.447,0.672-1,0.672h-2c-0.553,0-1-0.301-1-0.672V1.672
		C2.25,1.301,2.697,1,3.25,1z M19,6h2c0.553,0,1,0.448,1,1v2c0,0.552-0.447,1-1,1h-2c-0.553,0-1-0.448-1-1V7C18,6.448,18.447,6,19,6
		z M19,11h2c0.553,0,1,0.448,1,1v2c0,0.553-0.447,1-1,1h-2c-0.553,0-1-0.447-1-1v-2C18,11.448,18.447,11,19,11z M19,16h2
		c0.553,0,1,0.447,1,1v2c0,0.553-0.447,1-1,1h-2c-0.553,0-1-0.447-1-1v-2C18,16.447,18.447,16,19,16z M19,1h2
		c0.553,0,1,0.301,1,0.672v1.344c0,0.371-0.447,0.672-1,0.672h-2c-0.553,0-1-0.301-1-0.672V1.672C18,1.301,18.447,1,19,1z M18,1h2
		c0.553,0,1,0.301,1,0.672v1.344c0,0.371-0.447,0.672-1,0.672h-2c-0.553,0-1-0.301-1-0.672V1.672C17,1.301,17.447,1,18,1z M16,1h2
		c0.553,0,1,0.301,1,0.672v1.344c0,0.371-0.447,0.672-1,0.672h-2c-0.553,0-1-0.301-1-0.672V1.672C15,1.301,15.447,1,16,1z"/>
</g>
</svg>
