<?xml version="1.0" encoding="utf-8"?>
<!-- Generator: Adobe Illustrator 16.0.0, SVG Export Plug-In . SVG Version: 6.00 Build 0)  -->
<!DOCTYPE svg PUBLIC "-//W3C//DTD SVG 1.1//EN" "http://www.w3.org/Graphics/SVG/1.1/DTD/svg11.dtd">
<svg version="1.1" id="Layer_1" xmlns="http://www.w3.org/2000/svg" xmlns:xlink="http://www.w3.org/1999/xlink" x="0px" y="0px"
	 width="60px" height="60px" viewBox="0 0 60 60" enable-background="new 0 0 60 60" xml:space="preserve">
<title>img-icon--list</title>
<g id="img-icon--list">
	<g id="img-icon--person-copy-2">
		<circle id="Oval" fill="#FFFFFF" cx="30" cy="30" r="30"/>
		<g id="optionslist_87256" transform="translate(16.000000, 17.000000)">
			<path id="Shape" d="M3.395,6.79C1.523,6.79,0,5.267,0,3.395S1.523,0,3.395,0C5.267,0,6.79,1.523,6.79,3.395
				S5.267,6.79,3.395,6.79z M3.395,1.735c-0.916,0-1.66,0.745-1.66,1.66s0.744,1.66,1.66,1.66c0.915,0,1.659-0.745,1.659-1.66
				S4.31,1.735,3.395,1.735z"/>
			<path id="Path" d="M28.63,4.263H10.85c-0.479,0-0.868-0.389-0.868-0.868s0.388-0.868,0.868-0.868h17.78
				c0.479,0,0.868,0.389,0.868,0.868S29.109,4.263,28.63,4.263z"/>
			<path id="Shape_1_" d="M3.395,16.898C1.523,16.898,0,15.375,0,13.504c0-1.873,1.523-3.395,3.395-3.395
				c1.872,0,3.395,1.522,3.395,3.395C6.79,15.375,5.267,16.898,3.395,16.898z M3.395,11.844c-0.916,0-1.66,0.745-1.66,1.66
				c0,0.914,0.744,1.659,1.66,1.659c0.915,0,1.659-0.745,1.659-1.659C5.054,12.588,4.31,11.844,3.395,11.844z"/>
			<path id="Path_1_" d="M28.63,14.371H10.85c-0.479,0-0.868-0.389-0.868-0.867c0-0.479,0.388-0.868,0.868-0.868h17.78
				c0.479,0,0.868,0.389,0.868,0.868C29.498,13.982,29.109,14.371,28.63,14.371z"/>
			<path id="Shape_2_" d="M3.395,27.007C1.523,27.007,0,25.484,0,23.612s1.523-3.396,3.395-3.396c1.872,0,3.395,1.523,3.395,3.396
				S5.267,27.007,3.395,27.007z M3.395,21.953c-0.916,0-1.66,0.744-1.66,1.659s0.744,1.659,1.66,1.659
				c0.915,0,1.659-0.744,1.659-1.659S4.31,21.953,3.395,21.953z"/>
			<path id="Path_2_" d="M28.63,24.48H10.85c-0.479,0-0.868-0.389-0.868-0.868s0.388-0.868,0.868-0.868h17.78
				c0.479,0,0.868,0.389,0.868,0.868S29.109,24.48,28.63,24.48z"/>
		</g>
	</g>
</g>
</svg>
