<?xml version="1.0" encoding="utf-8"?>
<!-- Generator: Adobe Illustrator 16.0.0, SVG Export Plug-In . SVG Version: 6.00 Build 0)  -->
<!DOCTYPE svg PUBLIC "-//W3C//DTD SVG 1.1//EN" "http://www.w3.org/Graphics/SVG/1.1/DTD/svg11.dtd">
<svg version="1.1" id="Layer_1" xmlns="http://www.w3.org/2000/svg" xmlns:xlink="http://www.w3.org/1999/xlink" x="0px" y="0px"
	 width="60px" height="60px" viewBox="0 0 60 60" enable-background="new 0 0 60 60" xml:space="preserve">
<title>img-icon--certificate</title>
<g id="img-icon--certificate">
	<g id="img-icon--person">
		<circle id="Oval" fill="#FFFFFF" cx="30" cy="30" r="30"/>
		<g id="certificate-of-education-outlined-symbol_icon-icons.com_57879" transform="translate(15.000000, 17.000000)">
			<rect id="Rectangle" x="20.446" y="14.994" width="8.179" height="1.363"/>
			<rect id="Rectangle_1_" x="16.357" y="10.905" width="12.268" height="1.363"/>
			<path id="Shape" d="M29.988,0H2.726C1.227,0,0,1.227,0,2.726v17.72c0,1.499,1.227,2.726,2.726,2.726h2.726v5.453l3.408-3.408
				l3.408,3.408v-5.453h17.721c1.499,0,2.727-1.227,2.727-2.726V2.726C32.715,1.227,31.487,0,29.988,0z M10.905,25.354L8.86,23.309
				l-2.044,2.045v-5.316c0.682,0.273,1.363,0.409,2.044,0.409c0.682,0,1.363-0.136,2.045-0.409V25.354z M8.86,19.084
				c-1.908,0-3.408-1.5-3.408-3.408s1.5-3.408,3.408-3.408c1.909,0,3.408,1.5,3.408,3.408S10.769,19.084,8.86,19.084z
				 M31.352,20.446c0,0.817-0.545,1.363-1.363,1.363h-17.72v-2.862c0.818-0.818,1.363-2.045,1.363-3.271
				c0-2.59-2.181-4.771-4.771-4.771c-2.59,0-4.771,2.181-4.771,4.771c0,1.363,0.545,2.453,1.363,3.271v2.862H2.726
				c-0.818,0-1.363-0.682-1.363-1.363V2.726c0-0.818,0.545-1.363,1.363-1.363h27.262c0.818,0,1.363,0.681,1.363,1.363V20.446z"/>
			<rect id="Rectangle_2_" x="4.089" y="6.815" fill="#050407" width="24.536" height="1.363"/>
		</g>
	</g>
</g>
</svg>
