<?xml version="1.0" encoding="utf-8"?>
<!-- Generator: Adobe Illustrator 16.0.0, SVG Export Plug-In . SVG Version: 6.00 Build 0)  -->
<!DOCTYPE svg PUBLIC "-//W3C//DTD SVG 1.1//EN" "http://www.w3.org/Graphics/SVG/1.1/DTD/svg11.dtd">
<svg version="1.1" id="Layer_1" xmlns="http://www.w3.org/2000/svg" xmlns:xlink="http://www.w3.org/1999/xlink" x="0px" y="0px"
	 width="60px" height="60px" viewBox="0 0 60 60" enable-background="new 0 0 60 60" xml:space="preserve">
<title>img-icon--award</title>
<g id="img-icon--award">
	<g id="img-icon--person-copy">
		<circle id="Oval" fill="#FFFFFF" cx="30" cy="30" r="30"/>
		<g id="militar_medal_star_award_icon_124216" transform="translate(17.000000, 14.000000)">
			<path id="Medal" fill="#020202" d="M26.031,17.354l-5.178-0.688l3.438-15.695C24.372,0.485,24.008,0,23.482,0H3.256
				C2.73,0,2.366,0.485,2.447,0.971l3.479,15.695l-5.218,0.688c-0.647,0.082-0.971,0.891-0.445,1.376l6.108,5.866L4.833,33.01
				c-0.121,0.688,0.607,1.173,1.173,0.85l7.362-4.046l7.362,4.086c-0.89-0.526,1.173,0.931,1.173-0.85l-1.537-8.414l6.109-5.866
				C26.961,18.285,26.678,17.476,26.031,17.354z M14.178,1.618h8.293l-3.276,14.846l-1.497-0.203l-3.52-7.564V1.618z M4.268,1.618
				h8.292v7.079l-3.52,7.564l-1.497,0.203L4.268,1.618z M18.951,23.746c-0.201,0.201-0.283,0.444-0.242,0.728l1.295,7.16
				l-6.23-3.479c-0.121-0.08-0.242-0.121-0.404-0.121c-0.121,0-0.283,0.041-0.404,0.121l-6.271,3.479l1.294-7.16
				c0.041-0.283-0.04-0.526-0.243-0.728l-5.137-5.017l7.079-0.931c0.283-0.04,0.526-0.202,0.607-0.445l3.074-6.553l3.034,6.553
				c0.121,0.243,0.364,0.405,0.606,0.445l7.08,0.931L18.951,23.746z"/>
		</g>
	</g>
</g>
</svg>
