<?xml version="1.0" encoding="utf-8"?>
<!-- Generator: Adobe Illustrator 16.0.0, SVG Export Plug-In . SVG Version: 6.00 Build 0)  -->
<!DOCTYPE svg PUBLIC "-//W3C//DTD SVG 1.1//EN" "http://www.w3.org/Graphics/SVG/1.1/DTD/svg11.dtd">
<svg version="1.1" id="Layer_1" xmlns="http://www.w3.org/2000/svg" xmlns:xlink="http://www.w3.org/1999/xlink" x="0px" y="0px"
	 width="206px" height="44px" viewBox="0 0 206 44" enable-background="new 0 0 206 44" xml:space="preserve">
<g>
	<g>
		<defs>
			<rect id="SVGID_1_" x="7.017" y="-4.627" width="121.483" height="57.317"/>
		</defs>
		<clipPath id="SVGID_2_">
			<use xlink:href="#SVGID_1_"  overflow="visible"/>
		</clipPath>
		<path clip-path="url(#SVGID_2_)" fill="#EFEFEF" d="M38.952,4.85c3.11-0.009,5.938,1.42,8.053,4.113
			C44.658,6.737,41.932,5.353,38.952,4.85"/>
	</g>
	<g>
		<defs>
			<rect id="SVGID_3_" x="7.017" y="-4.627" width="121.483" height="57.317"/>
		</defs>
		<clipPath id="SVGID_4_">
			<use xlink:href="#SVGID_3_"  overflow="visible"/>
		</clipPath>
		<path clip-path="url(#SVGID_4_)" fill="#EFEFEF" d="M25.933,39.855c0,0-1.686,0.713-2.333,1.567c0,0,1.515-1.15,2.522-1.45
			l0.765-4.332l-0.313,0.722L25.933,39.855z M55.34,11.521c0.043,0.014,0.066,0.021,0.066,0.021S55.385,11.533,55.34,11.521
			 M40.778,13.767l2.384-2.07c0,0-8.602,3.651-9.883,10.621c0,0-0.036-1.832,0.656-3.309c0,0-2.473,2.512-4.546,7.029
			c-1.401,3.052-1.603,5.337-1.587,6.498c0.144-0.288,0.292-0.573,0.441-0.859c0.256-0.479,0.518-0.959,0.791-1.43
			c0.543-0.946,1.115-1.874,1.715-2.783c0.599-0.911,1.226-1.801,1.878-2.675l0.245-0.327l0.25-0.323
			c0.167-0.217,0.331-0.434,0.503-0.644l0.512-0.636l0.524-0.627l0.131-0.157l0.403-0.46l0.269-0.307
			c0.09-0.104,0.183-0.202,0.274-0.304c0.185-0.2,0.366-0.402,0.553-0.601l0.564-0.59l0.141-0.147
			c0.047-0.049,0.096-0.097,0.145-0.145l0.29-0.289c0.194-0.191,0.383-0.387,0.583-0.571l0.594-0.562
			c0.2-0.185,0.404-0.364,0.606-0.546l0.304-0.273c0.103-0.089,0.208-0.176,0.312-0.265l0.623-0.527l0.639-0.509l0.32-0.253
			l0.328-0.245l0.654-0.488l0.669-0.466l0.335-0.233l0.343-0.222l0.685-0.443c0.009-0.006,0.022-0.004,0.028,0.006
			c0.006,0.009,0.003,0.021-0.006,0.028l0,0l-0.681,0.448l-0.341,0.225l-0.333,0.234l-0.665,0.472l-0.65,0.493l-0.325,0.246
			l-0.317,0.256l-0.633,0.512l-0.618,0.531c-0.104,0.089-0.207,0.176-0.309,0.267l-0.301,0.274c-0.2,0.184-0.403,0.364-0.602,0.55
			l-0.588,0.564c-0.198,0.187-0.386,0.383-0.577,0.575l-0.287,0.29c-0.048,0.049-0.096,0.096-0.143,0.145l-0.14,0.149l-0.559,0.593
			c-0.184,0.199-0.364,0.402-0.545,0.604c-0.091,0.1-0.183,0.2-0.271,0.302l-0.266,0.311l-0.265,0.309L34.9,22.168l-0.13,0.156
			l-0.518,0.63l-0.506,0.638c-0.17,0.211-0.332,0.43-0.497,0.646l-0.247,0.323l-0.241,0.329c-0.644,0.873-1.262,1.768-1.852,2.679
			c-0.59,0.911-1.153,1.841-1.686,2.787c-0.269,0.471-0.525,0.948-0.776,1.43c-0.215,0.415-0.425,0.834-0.623,1.255
			c0.001,0.017,0.002,0.029,0.004,0.044c-1.424,2.491-3.192,5.668-3.192,5.668C25.08,39.418,24.34,39.6,24.34,39.6l-0.819,1.715
			c-0.016,0.036-0.3,0.601-0.3,0.601c0.185-0.037,0.315-0.206,0.308-0.394l-0.005-0.158c0.591-0.819,2.24-1.609,2.24-1.609
			l0.678-3.439c0.333-0.857,0.881-1.933,1.426-2.927c0,0.004,0.001,0.006,0.001,0.006s1.633,0.358,2.287-0.569
			c0,0-1.002,0.742-1.651,0.267c0,0,1.75-0.183,2.07-0.927c0,0-0.921,0.759-1.906,0.658c0,0,2.07-0.531,4.045-2.46
			c2.403-2.343,3.554-4.511,6.645-7.131c0,0-1.87,0.9-3.421,1.628c0,0,2.742-1.718,4.939-2.825c6.249-3.15,2.236-6.853,7.499-9.03
			c4.688-1.94,6.603-1.585,6.965-1.484C54.57,11.281,47.145,9.152,40.778,13.767"/>
	</g>
	<g>
		<defs>
			<rect id="SVGID_5_" x="7.017" y="-4.627" width="121.483" height="57.317"/>
		</defs>
		<clipPath id="SVGID_6_">
			<use xlink:href="#SVGID_5_"  overflow="visible"/>
		</clipPath>
		<path clip-path="url(#SVGID_6_)" fill="#EFEFEF" d="M25.612,42.278c0.286,0.077,0.578,0.14,0.869,0.195
			c0.291,0.057,0.584,0.103,0.877,0.14c0.294,0.04,0.589,0.067,0.884,0.084s0.59,0.024,0.885,0.017
			c0.588-0.013,1.176-0.079,1.74-0.231c0.143-0.035,0.275-0.079,0.403-0.136c0.126-0.061,0.243-0.131,0.344-0.219
			c0.1-0.09,0.181-0.194,0.238-0.313c0.029-0.061,0.052-0.123,0.071-0.188c0.019-0.067,0.032-0.134,0.042-0.202
			c0.04-0.275,0.021-0.567,0.008-0.865c-0.007-0.15-0.012-0.303-0.007-0.457c0.004-0.154,0.018-0.313,0.055-0.471
			c0.018-0.077,0.043-0.156,0.076-0.233c0.032-0.077,0.071-0.152,0.121-0.222c0.095-0.137,0.221-0.256,0.359-0.346
			c0.138-0.09,0.287-0.154,0.437-0.202c0.151-0.05,0.303-0.083,0.455-0.108c0.606-0.094,1.221-0.081,1.819-0.011
			c0.6,0.071,1.187,0.192,1.77,0.311c0.292,0.059,0.583,0.119,0.874,0.176c0.291,0.056,0.582,0.106,0.874,0.147
			c0.583,0.084,1.171,0.134,1.757,0.115c0.586-0.011,1.169-0.092,1.739-0.231c0.569-0.142,1.121-0.351,1.645-0.617
			c0.525-0.261,1.018-0.588,1.48-0.953l0.087-0.068l0.085-0.071l0.169-0.144l0.165-0.146c0.055-0.051,0.11-0.101,0.163-0.152
			l0.16-0.152l0.157-0.156l0.079-0.079l0.075-0.079l0.152-0.163c0.199-0.219,0.391-0.446,0.575-0.675
			c0.183-0.236,0.359-0.474,0.527-0.718c0.168-0.243,0.328-0.494,0.481-0.748c0.152-0.254,0.298-0.513,0.427-0.782l0.034,0.018
			c-0.121,0.274-0.258,0.537-0.402,0.798c-0.144,0.263-0.299,0.517-0.463,0.768c-0.163,0.25-0.334,0.494-0.513,0.733
			c-0.18,0.24-0.368,0.471-0.563,0.698c-0.395,0.45-0.818,0.878-1.284,1.255c-0.464,0.382-0.961,0.728-1.497,1.005
			c-0.534,0.281-1.1,0.502-1.683,0.656c-0.146,0.036-0.292,0.075-0.441,0.103c-0.073,0.015-0.148,0.029-0.222,0.044l-0.224,0.033
			c-0.038,0.006-0.075,0.015-0.112,0.017l-0.114,0.015c-0.074,0.006-0.149,0.017-0.225,0.022c-0.15,0.011-0.301,0.025-0.452,0.027
			c-0.604,0.021-1.207-0.024-1.802-0.104c-0.595-0.082-1.183-0.196-1.766-0.317c-0.583-0.114-1.164-0.233-1.747-0.298
			c-0.582-0.071-1.169-0.081-1.74,0.01c-0.281,0.044-0.559,0.121-0.784,0.268c-0.113,0.068-0.208,0.16-0.282,0.265
			c-0.037,0.054-0.067,0.11-0.094,0.171c-0.025,0.061-0.046,0.123-0.062,0.189c-0.063,0.265-0.055,0.557-0.046,0.851
			c0.009,0.296,0.026,0.603-0.022,0.915c-0.013,0.079-0.03,0.156-0.052,0.235c-0.024,0.077-0.054,0.154-0.09,0.228
			c-0.037,0.075-0.082,0.146-0.133,0.211c-0.051,0.066-0.109,0.125-0.171,0.179c-0.251,0.215-0.561,0.323-0.855,0.39
			c-0.59,0.146-1.195,0.2-1.796,0.198c-0.3-0.004-0.6-0.021-0.899-0.048c-0.298-0.027-0.595-0.068-0.889-0.119
			c-0.59-0.1-1.172-0.237-1.739-0.425L25.612,42.278z"/>
	</g>
</g>
<text transform="matrix(-0.7016 -0.7125 0.7125 -0.7016 22.418 36.5098)" fill="#EFEFEF" font-family="'CenturyGothic'" font-size="2.8761">A</text>
<text transform="matrix(-0.5988 -0.8009 0.8009 -0.5988 20.5908 34.583)" fill="#EFEFEF" font-family="'CenturyGothic'" font-size="2.8762">R</text>
<text transform="matrix(-0.5074 -0.8617 0.8617 -0.5074 19.2573 32.7246)" fill="#EFEFEF" font-family="'CenturyGothic'" font-size="2.8762">T</text>
<text transform="matrix(-0.4319 -0.9019 0.9019 -0.4319 18.3838 31.1787)" fill="#EFEFEF" font-family="'CenturyGothic'" font-size="2.8762"> </text>
<text transform="matrix(-0.32 -0.9474 0.9474 -0.32 17.79 29.9834)" fill="#EFEFEF" font-family="'CenturyGothic'" font-size="2.8762">O</text>
<text transform="matrix(-0.1873 -0.9823 0.9823 -0.1873 16.8926 27.0938)" fill="#EFEFEF" font-family="'CenturyGothic'" font-size="2.8762">F</text>
<text transform="matrix(-0.0971 -0.9953 0.9953 -0.0971 16.5654 25.1738)" fill="#EFEFEF" font-family="'CenturyGothic'" font-size="2.8763"> </text>
<text transform="matrix(-0.0083 -1 1 -0.0083 16.4478 23.833)" fill="#EFEFEF" font-family="'CenturyGothic'" font-size="2.8763">L</text>
<text transform="matrix(0.0764 -0.9971 0.9971 0.0764 16.4712 21.9512)" fill="#EFEFEF" font-family="'CenturyGothic'" font-size="2.8763">I</text>
<text transform="matrix(0.1784 -0.984 0.984 0.1784 16.5552 20.7593)" fill="#EFEFEF" font-family="'CenturyGothic'" font-size="2.8763">V</text>
<text transform="matrix(0.2786 -0.9604 0.9604 0.2786 17.0752 18.25)" fill="#EFEFEF" font-family="'CenturyGothic'" font-size="2.8762">I</text>
<text transform="matrix(0.3786 -0.9256 0.9256 0.3786 17.3965 17.0991)" fill="#EFEFEF" font-family="'CenturyGothic'" font-size="2.8763">N</text>
<text transform="matrix(0.518 -0.8554 0.8554 0.518 18.4229 14.6602)" fill="#EFEFEF" font-family="'CenturyGothic'" font-size="2.8762">G</text>
<text transform="matrix(0.6177 -0.7864 0.7864 0.6177 20.0698 12.1011)" fill="#0D4B8B" font-family="'CenturyGothic'" font-size="2.8762"> </text>
<text transform="matrix(0.7011 -0.713 0.713 0.7011 20.8916 11.0444)" fill="#EFEFEF" font-family="'CenturyGothic'" font-size="2.8761">A</text>
<text transform="matrix(0.8008 -0.599 0.599 0.8008 22.772 9.1787)" fill="#EFEFEF" font-family="'CenturyGothic'" font-size="2.8763">C</text>
<text transform="matrix(0.8812 -0.4728 0.4728 0.8812 25.0918 7.502)" fill="#EFEFEF" font-family="'CenturyGothic'" font-size="2.8763">A</text>
<text transform="matrix(0.9408 -0.3391 0.3391 0.9408 27.4458 6.2783)" fill="#EFEFEF" font-family="'CenturyGothic'" font-size="2.8763">D</text>
<text transform="matrix(0.9771 -0.2127 0.2127 0.9771 29.9761 5.4272)" fill="#EFEFEF" font-family="'CenturyGothic'" font-size="2.8762">E</text>
<text transform="matrix(0.9976 -0.0695 0.0695 0.9976 31.9971 4.9849)" fill="#EFEFEF" font-family="'CenturyGothic'" font-size="2.8763">M</text>
<text transform="matrix(0.9969 0.0786 -0.0786 0.9969 35.1572 4.8389)" fill="#EFEFEF" font-family="'CenturyGothic'" font-size="2.8762">Y</text>
<g>
	<path fill="#EFEFEF" d="M51.725,13.845h0.602v6.008h-0.602V13.845z"/>
	<path fill="#EFEFEF" d="M53.78,19.853v-6.008h0.131l4,4.606v-4.606h0.591v6.008h-0.134l-3.967-4.55v4.55H53.78z"/>
	<path fill="#EFEFEF" d="M59.451,14.433v-0.588h3.295v0.588h-1.343v5.42h-0.611v-5.42H59.451z"/>
	<path fill="#EFEFEF" d="M63.699,13.845h3.444v0.588h-2.844v1.883h2.818v0.588h-2.818v2.361h2.818v0.588h-3.418V13.845
		L63.699,13.845z"/>
	<path fill="#EFEFEF" d="M68.278,13.845h1.198c0.668,0,1.12,0.027,1.357,0.082c0.355,0.081,0.647,0.257,0.868,0.525
		c0.225,0.27,0.337,0.6,0.337,0.992c0,0.328-0.078,0.616-0.232,0.862c-0.155,0.25-0.373,0.436-0.66,0.563
		c-0.288,0.128-0.68,0.192-1.183,0.194l2.16,2.79h-0.744l-2.158-2.79H68.88v2.79h-0.602V13.845L68.278,13.845z M68.88,14.433v2.043
		l1.034,0.008c0.403,0,0.696-0.038,0.892-0.114c0.19-0.077,0.341-0.199,0.449-0.367c0.108-0.167,0.163-0.354,0.163-0.562
		c0-0.202-0.054-0.385-0.163-0.549c-0.111-0.165-0.254-0.283-0.431-0.354c-0.179-0.07-0.472-0.105-0.886-0.105H68.88z"/>
	<path fill="#EFEFEF" d="M73.414,19.853v-6.008h0.129l4.001,4.606v-4.606h0.59v6.008h-0.132l-3.969-4.55v4.55H73.414z"/>
	<path fill="#EFEFEF" d="M82.137,13.845l2.803,6.008h-0.648l-0.946-1.977H80.76l-0.94,1.977h-0.67l2.841-6.008H82.137z
		 M82.062,15.121l-1.028,2.175h2.054L82.062,15.121z"/>
	<path fill="#EFEFEF" d="M85.357,14.433v-0.588h3.291v0.588h-1.337v5.42h-0.612v-5.42H85.357z"/>
	<path fill="#EFEFEF" d="M89.513,13.845h0.604v6.008h-0.604V13.845z"/>
	<path fill="#EFEFEF" d="M94.429,13.693c0.911,0,1.67,0.303,2.284,0.912c0.614,0.607,0.922,1.354,0.922,2.241
		c0,0.879-0.308,1.627-0.918,2.24c-0.614,0.613-1.357,0.919-2.237,0.919c-0.896,0-1.646-0.307-2.259-0.916s-0.919-1.347-0.919-2.214
		c0-0.577,0.141-1.112,0.418-1.605c0.28-0.492,0.66-0.878,1.145-1.158C93.346,13.833,93.867,13.693,94.429,13.693z M94.457,14.278
		c-0.446,0-0.868,0.116-1.268,0.347c-0.4,0.232-0.708,0.544-0.93,0.936c-0.225,0.393-0.337,0.83-0.337,1.313
		c0,0.713,0.249,1.316,0.745,1.807c0.496,0.494,1.088,0.738,1.791,0.738c0.465,0,0.894-0.112,1.292-0.337
		c0.396-0.227,0.706-0.536,0.934-0.928c0.219-0.393,0.326-0.829,0.326-1.309c0-0.478-0.107-0.909-0.326-1.294
		c-0.228-0.386-0.54-0.694-0.943-0.926C95.336,14.394,94.907,14.278,94.457,14.278z"/>
	<path fill="#EFEFEF" d="M98.908,19.853v-6.008h0.133l3.998,4.606v-4.606h0.594v6.008h-0.136l-3.967-4.55v4.55H98.908z"/>
	<path fill="#EFEFEF" d="M107.631,13.845l2.801,6.008h-0.645l-0.947-1.977h-2.587l-0.933,1.977h-0.673l2.837-6.008H107.631z
		 M107.558,15.121l-1.029,2.175h2.052L107.558,15.121z"/>
	<path fill="#EFEFEF" d="M111.449,13.845h0.599v5.428h2.314v0.58h-2.913V13.845z"/>
	<path fill="#EFEFEF" d="M117.799,13.845h3.446v0.588h-2.843v1.883h2.819v0.588h-2.819v2.361h2.819v0.588h-3.423V13.845
		L117.799,13.845z"/>
	<path fill="#EFEFEF" d="M121.751,14.433v-0.588h3.294v0.588h-1.341v5.42h-0.612v-5.42H121.751z"/>
	<path fill="#EFEFEF" d="M125.91,13.845h0.599v6.008h-0.599V13.845z"/>
	<path fill="#EFEFEF" d="M132.997,19.2l0.892,1.127h-0.741l-0.608-0.775c-0.492,0.301-1.046,0.453-1.663,0.453
		c-0.885,0-1.64-0.307-2.25-0.916c-0.612-0.609-0.92-1.347-0.92-2.214c0-0.577,0.141-1.112,0.421-1.607
		c0.283-0.495,0.662-0.881,1.146-1.16c0.485-0.276,1.011-0.416,1.592-0.416c0.89,0,1.639,0.305,2.248,0.915
		c0.611,0.607,0.918,1.357,0.918,2.245c0,0.464-0.085,0.887-0.252,1.269C133.613,18.506,133.353,18.865,132.997,19.2z
		 M132.624,18.731c0.523-0.51,0.784-1.139,0.784-1.886c0-0.478-0.11-0.908-0.329-1.294c-0.226-0.385-0.534-0.694-0.939-0.926
		c-0.402-0.231-0.823-0.347-1.274-0.347c-0.449,0-0.871,0.115-1.271,0.346c-0.398,0.229-0.706,0.542-0.931,0.935
		c-0.223,0.393-0.337,0.832-0.337,1.315c0,0.713,0.247,1.316,0.742,1.807c0.49,0.494,1.087,0.738,1.786,0.738
		c0.476,0,0.908-0.113,1.305-0.346l-1.338-1.698h0.729L132.624,18.731z"/>
	<path fill="#EFEFEF" d="M135.346,13.845h0.599v3.627c0,0.431,0.01,0.698,0.024,0.804c0.032,0.237,0.102,0.436,0.209,0.595
		c0.107,0.16,0.275,0.292,0.501,0.4c0.228,0.107,0.453,0.16,0.682,0.16c0.202,0,0.39-0.041,0.573-0.125
		c0.183-0.086,0.333-0.203,0.457-0.351c0.126-0.151,0.214-0.332,0.271-0.544c0.039-0.152,0.062-0.465,0.062-0.939v-3.627h0.603
		v3.627c0,0.537-0.054,0.969-0.16,1.301c-0.104,0.33-0.315,0.618-0.629,0.863c-0.313,0.244-0.696,0.369-1.142,0.369
		c-0.485,0-0.898-0.116-1.249-0.349c-0.343-0.229-0.57-0.536-0.693-0.917c-0.072-0.234-0.107-0.657-0.107-1.267V13.845z"/>
	<path fill="#EFEFEF" d="M140.89,13.845h3.446v0.588h-2.845v1.883h2.817v0.588h-2.817v2.361h2.817v0.588h-3.419V13.845
		L140.89,13.845z"/>
	<path fill="#EFEFEF" d="M144.845,14.433v-0.588h3.288v0.588h-1.338v5.42h-0.612v-5.42H144.845z"/>
	<path fill="#EFEFEF" d="M148.486,14.433v-0.588h3.292v0.588h-1.34v5.42h-0.611v-5.42H148.486z"/>
	<path fill="#EFEFEF" d="M152.732,13.845h3.443v0.588h-2.843v1.883h2.821v0.588h-2.821v2.361h2.821v0.588h-3.422V13.845
		L152.732,13.845z"/>
	<path fill="#EFEFEF" d="M164.236,17.632l0.408,0.43c-0.265,0.231-0.511,0.43-0.744,0.601c0.162,0.148,0.374,0.355,0.64,0.619
		c0.204,0.208,0.384,0.397,0.533,0.571h-0.837l-0.798-0.821c-0.499,0.403-0.905,0.667-1.221,0.791
		c-0.313,0.12-0.643,0.183-0.991,0.183c-0.467,0-0.836-0.136-1.117-0.399c-0.281-0.264-0.418-0.595-0.418-0.995
		c0-0.3,0.094-0.601,0.283-0.901c0.191-0.302,0.574-0.682,1.155-1.142c-0.329-0.398-0.54-0.691-0.632-0.88s-0.144-0.37-0.144-0.541
		c0-0.301,0.115-0.547,0.348-0.742c0.27-0.229,0.601-0.343,0.997-0.343c0.252,0,0.481,0.05,0.686,0.151
		c0.209,0.1,0.363,0.235,0.471,0.406c0.115,0.17,0.169,0.351,0.169,0.541c0,0.202-0.069,0.417-0.212,0.644
		c-0.145,0.227-0.424,0.518-0.843,0.871l0.915,0.958l0.596,0.604C163.8,18.001,164.056,17.799,164.236,17.632z M161.529,17.022
		c-0.512,0.383-0.845,0.69-1.006,0.917c-0.157,0.228-0.237,0.438-0.237,0.63c0,0.23,0.099,0.432,0.294,0.607
		c0.189,0.177,0.43,0.263,0.709,0.263c0.212,0,0.421-0.042,0.626-0.129c0.324-0.139,0.691-0.376,1.109-0.708l-0.95-0.977
		C161.912,17.456,161.73,17.253,161.529,17.022z M161.604,16.227c0.29-0.227,0.509-0.449,0.653-0.666
		c0.105-0.156,0.16-0.292,0.16-0.414c0-0.138-0.07-0.258-0.201-0.358c-0.142-0.102-0.319-0.151-0.543-0.151
		c-0.21,0-0.384,0.052-0.521,0.155c-0.131,0.103-0.2,0.225-0.2,0.368c0,0.109,0.026,0.211,0.08,0.306
		C161.169,15.698,161.358,15.95,161.604,16.227z"/>
	<path fill="#EFEFEF" d="M168.508,13.845h3.444v0.588h-2.844v1.883h2.821v0.588h-2.821v2.361h2.821v0.588h-3.422V13.845
		L168.508,13.845z"/>
	<path fill="#EFEFEF" d="M172.607,13.845h0.654l1.992,4.641l2.025-4.641h0.651l-2.614,6.008h-0.133L172.607,13.845z"/>
	<path fill="#EFEFEF" d="M179.008,13.845h3.445v0.588h-2.844v1.883h2.821v0.588h-2.821v2.361h2.821v0.588h-3.423V13.845
		L179.008,13.845z"/>
	<path fill="#EFEFEF" d="M183.566,19.853v-6.008h0.127l4,4.606v-4.606h0.592v6.008h-0.134l-3.969-4.55v4.55H183.566z"/>
	<path fill="#EFEFEF" d="M189.233,14.433v-0.588h3.295v0.588h-1.342v5.42h-0.61v-5.42H189.233z"/>
	<path fill="#EFEFEF" d="M192.857,18.734l0.508-0.307c0.36,0.663,0.776,0.992,1.246,0.992c0.204,0,0.394-0.045,0.567-0.14
		c0.179-0.093,0.314-0.22,0.407-0.377c0.089-0.157,0.14-0.324,0.14-0.503c0-0.2-0.07-0.398-0.204-0.591
		c-0.191-0.266-0.533-0.589-1.032-0.965c-0.499-0.377-0.81-0.65-0.933-0.82c-0.215-0.283-0.319-0.59-0.319-0.919
		c0-0.261,0.064-0.499,0.188-0.715c0.123-0.213,0.301-0.385,0.529-0.508c0.225-0.123,0.474-0.187,0.741-0.187
		c0.282,0,0.545,0.071,0.795,0.211c0.246,0.141,0.506,0.399,0.781,0.774l-0.488,0.372c-0.228-0.3-0.422-0.497-0.581-0.594
		c-0.159-0.095-0.332-0.142-0.519-0.142c-0.245,0-0.441,0.072-0.598,0.221c-0.149,0.146-0.229,0.328-0.229,0.542
		c0,0.13,0.027,0.257,0.082,0.38c0.054,0.122,0.15,0.256,0.299,0.399c0.076,0.077,0.337,0.277,0.774,0.602
		c0.519,0.383,0.877,0.726,1.069,1.024c0.195,0.301,0.29,0.601,0.29,0.903c0,0.437-0.164,0.816-0.497,1.134
		c-0.327,0.321-0.73,0.485-1.204,0.485c-0.362,0-0.698-0.101-0.991-0.291C193.38,19.518,193.106,19.191,192.857,18.734z"/>
</g>
<path fill="#EFEFEF" d="M62.792,31.548c-0.05,0.59-0.43,1.071-1.132,1.445c-0.685,0.364-1.573,0.549-2.664,0.549
	c-1.315,0-2.306-0.307-2.964-0.923c-0.502-0.462-0.752-1.024-0.752-1.694c0-0.624,0.202-1.147,0.607-1.584l0.619-0.104
	c-0.449,0.519-0.671,1.081-0.671,1.688c0,0.662,0.292,1.193,0.881,1.59c0.563,0.39,1.323,0.587,2.28,0.587
	c1.047,0,1.858-0.186,2.439-0.558c0.438-0.271,0.682-0.604,0.724-0.996h-1.371l0.29-0.438h1.754v0.438H62.792L62.792,31.548z
	 M58.774,35.005c0,0.234-0.139,0.35-0.41,0.35c-0.281,0-0.422-0.115-0.422-0.35c0-0.225,0.141-0.333,0.422-0.333
	C58.635,34.672,58.774,34.78,58.774,35.005L58.774,35.005z M60.102,35.005c0,0.234-0.135,0.35-0.406,0.35
	c-0.281,0-0.423-0.115-0.423-0.35c0-0.225,0.142-0.333,0.423-0.333C59.967,34.672,60.102,34.78,60.102,35.005L60.102,35.005z
	 M62.121,31.548V31.11h0.567c1.088,0,1.635-0.444,1.635-1.339v-4.714l0.62-0.26v4.982c0,0.567-0.208,1.008-0.62,1.33
	c-0.388,0.295-0.903,0.438-1.542,0.438H62.121z M70.939,31.069c-0.387,0.249-0.928,0.375-1.622,0.375
	c-0.748,0-1.328-0.225-1.74-0.679c-0.36-0.396-0.541-0.904-0.541-1.529c0-0.719,0.238-1.278,0.713-1.688
	c0.421-0.355,0.978-0.534,1.673-0.534c0.658,0,1.178,0.157,1.561,0.474c0.386,0.313,0.575,0.743,0.575,1.29v2.324
	c0,0.753-0.243,1.354-0.726,1.798c-0.458,0.427-1.077,0.642-1.859,0.642c-0.501,0-0.979-0.096-1.435-0.271v-0.439
	c0.456,0.186,0.914,0.28,1.37,0.28c0.721,0,1.26-0.226,1.621-0.672c0.272-0.349,0.41-0.787,0.41-1.315V31.069L70.939,31.069z
	 M70.939,28.86c0-0.935-0.506-1.404-1.517-1.404c-0.552,0-0.99,0.16-1.311,0.478s-0.482,0.752-0.482,1.303
	c0,0.557,0.166,1.003,0.502,1.331c0.298,0.29,0.693,0.439,1.186,0.439c0.826,0,1.366-0.187,1.622-0.566V28.86L70.939,28.86z
	 M72.863,31.548l0.292-0.438h2.597c0.453,0,0.775-0.093,0.959-0.273c0.187-0.188,0.279-0.508,0.279-0.963
	c0-1.1-0.607-1.91-1.82-2.418l0.329-0.441c1.407,0.651,2.11,1.568,2.11,2.757c0,0.895,0.544,1.339,1.634,1.339h0.565v0.438h-0.658
	c-0.799,0-1.391-0.219-1.779-0.666c-0.282,0.447-0.79,0.666-1.526,0.666H72.863L72.863,31.548z M79.016,31.548V31.11h0.566
	c1.093,0,1.638-0.444,1.638-1.339v-4.714l0.619-0.26v4.982c0,0.567-0.205,1.008-0.619,1.33c-0.387,0.295-0.899,0.438-1.544,0.438
	H79.016z M84.332,31.548v-6.49l0.619-0.26v6.75H84.332z"/>
<text transform="matrix(1.2589 0 0 1 67.208 26.4141)" fill="#0D4B8B" font-family="'CenturyGothic'" font-size="4.8593"> </text>
<path fill="#EFEFEF" d="M97.354,31.087c0,0.778-0.332,1.394-1.003,1.845c-0.604,0.407-1.38,0.61-2.316,0.61
	c-1.102,0-1.952-0.307-2.557-0.923c-0.469-0.475-0.704-1.041-0.704-1.694c0-0.624,0.203-1.147,0.61-1.584l0.619-0.104
	c-0.45,0.519-0.672,1.081-0.672,1.688c0,0.64,0.267,1.169,0.806,1.59c0.499,0.39,1.13,0.587,1.898,0.587
	c0.896,0,1.588-0.216,2.083-0.639c0.407-0.355,0.617-0.813,0.617-1.372v-6.033l0.619-0.26V31.087z M103.97,31.11h1.674v0.438h-1.674
	c0,0.601-0.291,1.097-0.868,1.488c-0.492,0.338-1.064,0.506-1.717,0.506c-0.5,0-0.977-0.096-1.436-0.271v-0.439
	c0.459,0.186,0.913,0.28,1.374,0.28c0.576,0,1.073-0.169,1.489-0.504c0.358-0.292,0.536-0.636,0.536-1.034v-0.021
	c-0.235,0-0.602-0.009-1.093-0.023c-1.872-0.042-2.804-0.787-2.804-2.239c0-0.748,0.235-1.322,0.708-1.729
	c0.423-0.361,0.98-0.544,1.675-0.544c0.656,0,1.177,0.161,1.563,0.471c0.383,0.313,0.572,0.743,0.572,1.29V31.11L103.97,31.11z
	 M103.349,28.86c0-0.935-0.502-1.404-1.514-1.404c-0.556,0-0.985,0.163-1.3,0.489c-0.313,0.321-0.468,0.771-0.468,1.345
	c0,1.131,0.729,1.731,2.188,1.801c0.235,0.012,0.601,0.02,1.093,0.02V28.86L103.349,28.86z M106.91,27.354
	c0.182-0.021,0.373-0.031,0.566-0.031c0.958,0,1.717,0.223,2.278,0.682c0.52,0.402,0.779,0.933,0.779,1.588v0.21
	c0,0.581-0.222,1.026-0.659,1.34c-0.375,0.275-0.881,0.406-1.503,0.406h-3.519V31.11h3.45c1.076,0,1.609-0.465,1.609-1.391v-0.128
	c0-0.596-0.275-1.058-0.829-1.381c-0.448-0.26-1.007-0.387-1.674-0.387c-0.484,0-0.954,0.065-1.41,0.199V27.53l3.095-2.732h0.66
	L106.91,27.354z M116.754,31.11h1.677v0.438h-1.677c0,0.601-0.288,1.097-0.867,1.488c-0.493,0.338-1.063,0.506-1.715,0.506
	c-0.499,0-0.981-0.096-1.438-0.271v-0.439c0.456,0.186,0.914,0.28,1.373,0.28c0.58,0,1.075-0.169,1.488-0.504
	c0.36-0.292,0.538-0.636,0.538-1.034v-0.021c-0.234,0-0.602-0.009-1.094-0.023c-1.873-0.042-2.805-0.787-2.805-2.239
	c0-0.748,0.234-1.322,0.713-1.729c0.418-0.361,0.977-0.544,1.675-0.544c0.658,0,1.178,0.161,1.561,0.471
	c0.378,0.313,0.57,0.743,0.57,1.29V31.11L116.754,31.11z M116.134,28.86c0-0.935-0.504-1.404-1.511-1.404
	c-0.557,0-0.989,0.163-1.306,0.489c-0.308,0.321-0.463,0.771-0.463,1.345c0,1.131,0.729,1.731,2.186,1.801
	c0.241,0.012,0.604,0.02,1.094,0.02V28.86z M117.636,31.548V31.11h0.566c1.094,0,1.637-0.444,1.637-1.339v-2.388l0.618-0.259v2.655
	c0,0.567-0.206,1.008-0.618,1.33c-0.385,0.295-0.9,0.438-1.539,0.438H117.636L117.636,31.548z M119.128,25.292
	c0,0.228-0.136,0.344-0.406,0.344c-0.285,0-0.422-0.116-0.422-0.344c0-0.223,0.137-0.339,0.422-0.339
	C118.992,24.953,119.128,25.069,119.128,25.292L119.128,25.292z M120.457,25.292c0,0.228-0.135,0.344-0.406,0.344
	c-0.284,0-0.423-0.116-0.423-0.344c0-0.223,0.139-0.339,0.423-0.339C120.322,24.953,120.457,25.069,120.457,25.292L120.457,25.292z
	 M126.457,31.069c-0.389,0.249-0.932,0.375-1.625,0.375c-0.743,0-1.324-0.225-1.74-0.679c-0.354-0.396-0.539-0.904-0.539-1.529
	c0-0.719,0.238-1.278,0.714-1.688c0.423-0.355,0.981-0.534,1.674-0.534c0.66,0,1.178,0.157,1.562,0.474
	c0.381,0.313,0.568,0.743,0.568,1.29v2.324c0,0.753-0.238,1.354-0.72,1.798c-0.457,0.427-1.077,0.642-1.858,0.642
	c-0.501,0-0.981-0.096-1.438-0.271v-0.439c0.457,0.186,0.913,0.28,1.37,0.28c0.722,0,1.261-0.226,1.622-0.672
	c0.271-0.349,0.411-0.787,0.411-1.315V31.069z M126.457,28.86c0-0.935-0.509-1.404-1.517-1.404c-0.555,0-0.99,0.16-1.313,0.478
	c-0.316,0.317-0.48,0.752-0.48,1.303c0,0.557,0.168,1.003,0.499,1.331c0.301,0.29,0.698,0.439,1.187,0.439
	c0.826,0,1.368-0.187,1.625-0.566V28.86L126.457,28.86z M130.946,29.771c0,0.895,0.547,1.339,1.638,1.339h0.566v0.438h-0.657
	c-0.643,0-1.159-0.143-1.547-0.438c0,0.755-0.24,1.353-0.72,1.79c-0.458,0.427-1.079,0.642-1.86,0.642
	c-0.5,0-0.981-0.096-1.438-0.271v-0.439c0.457,0.186,0.916,0.28,1.372,0.28c0.721,0,1.26-0.226,1.624-0.672
	c0.271-0.349,0.407-0.787,0.407-1.315v-3.74l0.615-0.259V29.771L130.946,29.771z M135.18,29.771c0,0.895,0.546,1.339,1.635,1.339
	h0.568v0.438h-0.662c-0.868,0-1.483-0.251-1.845-0.763c-0.369,0.512-0.987,0.763-1.859,0.763h-0.656V31.11h0.567
	c1.089,0,1.631-0.444,1.631-1.339v-2.388l0.621-0.259V29.771L135.18,29.771z M134.216,33.036c0-0.221,0.142-0.333,0.425-0.333
	c0.271,0,0.41,0.112,0.41,0.333c0,0.234-0.14,0.346-0.41,0.346C134.357,33.382,134.216,33.271,134.216,33.036L134.216,33.036z
	 M136.59,31.548V31.11h0.57c1.087,0,1.633-0.444,1.633-1.339v-4.714l0.617-0.26v4.982c0,0.567-0.204,1.008-0.617,1.33
	c-0.385,0.295-0.901,0.438-1.541,0.438H136.59z M141.902,31.548v-6.49l0.62-0.26v6.75H141.902z M148.516,31.069
	c-0.383,0.249-0.922,0.375-1.62,0.375c-0.742,0-1.324-0.225-1.739-0.679c-0.359-0.396-0.537-0.904-0.537-1.529
	c0-0.719,0.234-1.278,0.712-1.688c0.423-0.355,0.976-0.534,1.67-0.534c0.664,0,1.184,0.157,1.566,0.474
	c0.378,0.313,0.57,0.743,0.57,1.29v2.324c0,0.753-0.243,1.354-0.721,1.798c-0.458,0.427-1.079,0.642-1.86,0.642
	c-0.501,0-0.982-0.096-1.438-0.271v-0.439c0.455,0.186,0.914,0.28,1.371,0.28c0.721,0,1.259-0.226,1.619-0.672
	c0.274-0.349,0.406-0.787,0.406-1.315V31.069z M148.516,28.86c0-0.935-0.503-1.404-1.515-1.404c-0.549,0-0.989,0.16-1.309,0.478
	c-0.322,0.317-0.481,0.752-0.481,1.303c0,0.557,0.167,1.003,0.502,1.331c0.299,0.29,0.691,0.439,1.183,0.439
	c0.831,0,1.368-0.187,1.62-0.566V28.86L148.516,28.86z"/>
<text transform="matrix(1.2589 0 0 1 101.6406 27.1416)" fill="#0D4B8B" font-family="'CenturyGothic'" font-size="5.1375"> </text>
<path fill="#EFEFEF" d="M164.049,29.771c0,0.895,0.539,1.339,1.629,1.339h0.308v0.438h-0.396c-0.865,0-1.477-0.251-1.848-0.763
	c-0.377,0.512-1.001,0.763-1.872,0.763h-4.704c-0.631,0-1.136-0.153-1.511-0.47c-0.374-0.313-0.558-0.74-0.558-1.276v-1.479
	l0.619-0.258v1.654c0,0.926,0.545,1.391,1.635,1.391h4.452c1.081,0,1.623-0.465,1.623-1.391v-2.336l0.622-0.259V29.771
	L164.049,29.771z M158.971,26.336c0,0.231-0.134,0.346-0.407,0.346c-0.282,0-0.422-0.114-0.422-0.346
	c0-0.224,0.14-0.331,0.422-0.331C158.837,26.005,158.971,26.112,158.971,26.336L158.971,26.336z M160.305,26.336
	c0,0.231-0.139,0.346-0.411,0.346c-0.277,0-0.421-0.114-0.421-0.346c0-0.224,0.144-0.331,0.421-0.331
	C160.166,26.005,160.305,26.112,160.305,26.336L160.305,26.336z M165.193,31.548V31.11h2.32v0.438H165.193z M165.193,31.548V31.11
	h2.32v0.438H165.193z M169.541,29.771c0,0.895,0.546,1.339,1.636,1.339h0.566v0.438h-0.658c-0.867,0-1.486-0.251-1.846-0.763
	c-0.368,0.512-0.986,0.763-1.86,0.763h-0.658V31.11h0.565c1.094,0,1.637-0.444,1.637-1.339v-2.388l0.618-0.259V29.771
	L169.541,29.771z M167.896,33.047c0-0.227,0.14-0.344,0.422-0.344c0.271,0,0.407,0.117,0.407,0.344c0,0.226-0.136,0.335-0.407,0.335
	C168.035,33.382,167.896,33.272,167.896,33.047L167.896,33.047z M169.225,33.047c0-0.227,0.144-0.344,0.426-0.344
	c0.271,0,0.407,0.117,0.407,0.344c0,0.226-0.136,0.335-0.407,0.335C169.368,33.382,169.225,33.272,169.225,33.047L169.225,33.047z
	 M176.633,29.771c0,0.895,0.547,1.339,1.636,1.339h0.435v0.438h-0.528c-0.852,0-1.468-0.247-1.844-0.752
	c-0.373,0.505-0.988,0.752-1.858,0.752h-3.521V31.11h3.453c1.075,0,1.607-0.465,1.607-1.391v-0.128c0-0.596-0.274-1.058-0.829-1.381
	c-0.448-0.26-1.011-0.387-1.688-0.387c-0.474,0-0.938,0.065-1.396,0.199V27.53l3.097-2.732h0.658l-2.845,2.556
	c0.183-0.021,0.372-0.031,0.566-0.031c0.949,0,1.709,0.223,2.278,0.682c0.52,0.402,0.778,0.933,0.778,1.588V29.771L176.633,29.771z
	 M180.733,29.771c0,0.895,0.542,1.339,1.636,1.339h0.566v0.438h-0.659c-0.873,0-1.488-0.251-1.846-0.763
	c-0.366,0.512-0.989,0.763-1.859,0.763h-0.659V31.11h0.566c1.088,0,1.637-0.444,1.637-1.339v-2.388l0.618-0.259V29.771
	L180.733,29.771z M179.086,33.047c0-0.227,0.14-0.344,0.423-0.344c0.271,0,0.406,0.117,0.406,0.344c0,0.226-0.135,0.335-0.406,0.335
	C179.226,33.382,179.086,33.272,179.086,33.047L179.086,33.047z M180.414,33.047c0-0.227,0.142-0.344,0.425-0.344
	c0.271,0,0.41,0.117,0.41,0.344c0,0.226-0.14,0.335-0.41,0.335C180.556,33.382,180.414,33.272,180.414,33.047L180.414,33.047z
	 M182.144,31.548V31.11h0.566c1.089,0,1.636-0.444,1.636-1.339v-2.388l0.619-0.259v2.655c0,0.567-0.204,1.008-0.619,1.33
	c-0.389,0.295-0.905,0.438-1.542,0.438H182.144L182.144,31.548z M183.631,25.292c0,0.228-0.134,0.344-0.405,0.344
	c-0.283,0-0.422-0.116-0.422-0.344c0-0.223,0.139-0.339,0.422-0.339C183.497,24.953,183.631,25.069,183.631,25.292L183.631,25.292z
	 M184.965,25.292c0,0.228-0.14,0.344-0.41,0.344c-0.279,0-0.423-0.116-0.423-0.344c0-0.223,0.144-0.339,0.423-0.339
	C184.825,24.953,184.965,25.069,184.965,25.292L184.965,25.292z M192.173,25.058l0.62-0.26v4.982c0,0.567-0.207,1.008-0.62,1.33
	c-0.385,0.295-0.901,0.438-1.543,0.438h-4.1l0.291-0.438h2.096v-4.692l0.621-0.26v4.952h1.001c1.091,0,1.634-0.444,1.634-1.339
	V25.058L192.173,25.058z M189.773,32.985c-0.153-0.093-0.314-0.14-0.472-0.14c-0.141,0-0.264,0.04-0.372,0.117
	c-0.105,0.078-0.161,0.17-0.161,0.272c0,0.127,0.071,0.252,0.203,0.367h1.104l-0.197,0.294h-1.895l0.197-0.294h0.313
	c-0.078-0.115-0.116-0.237-0.116-0.358c0-0.188,0.089-0.352,0.264-0.49c0.175-0.14,0.387-0.21,0.633-0.21
	c0.166,0,0.332,0.038,0.498,0.117V32.985L189.773,32.985z M195.285,31.548v-6.49l0.618-0.26v6.75H195.285z"/>
</svg>
