<?xml version="1.0" encoding="utf-8"?>
<!-- Generator: Adobe Illustrator 16.0.0, SVG Export Plug-In . SVG Version: 6.00 Build 0)  -->
<!DOCTYPE svg PUBLIC "-//W3C//DTD SVG 1.1//EN" "http://www.w3.org/Graphics/SVG/1.1/DTD/svg11.dtd">
<svg version="1.1" id="Layer_1" xmlns="http://www.w3.org/2000/svg" xmlns:xlink="http://www.w3.org/1999/xlink" x="0px" y="0px"
	 width="36px" height="36px" viewBox="0 0 36 36" enable-background="new 0 0 36 36" xml:space="preserve">
<g>
	<g>
		<g>
			<g id="_x31_907_x2C__Class_x2C__Education_x2C__People_x2C__School_x2C__Students">
				<g>
					<path d="M33.94,2.058H13.429c-0.375,0-0.698,0.32-0.698,0.694c0,0.373,0.323,0.694,0.698,0.694h19.867v19.745H13.429
						c-0.375,0-0.698,0.32-0.698,0.694c0,0.373,0.323,0.693,0.698,0.693H33.94c0.375,0,0.698-0.32,0.698-0.693V2.752
						C34.639,2.378,34.315,2.058,33.94,2.058z"/>
					<path d="M8.65,23.138v-3.414c0-0.374-0.322-0.694-0.698-0.694c-0.375,0-0.698,0.32-0.698,0.694v3.414
						c0,0.374,0.323,0.694,0.698,0.694C8.328,23.832,8.65,23.512,8.65,23.138z"/>
					<path d="M13.429,17.695c0.375,0,0.698-0.321,0.698-0.694v-2.028h6.176c0.375,0,0.696-0.32,0.696-0.694v-2.722
						c0-0.374-0.321-0.694-0.696-0.694h-7.787c-0.591-0.64-1.289-1.174-2.094-1.494c0.967-0.747,1.611-1.921,1.611-3.255
						c0-2.241-1.826-4.056-4.081-4.056c-2.255,0-4.081,1.815-4.081,4.056c0,1.334,0.644,2.508,1.611,3.255
						c-2.147,0.96-3.651,3.095-3.651,5.604v2.082c0,0.373,0.322,0.693,0.698,0.693h1.986v5.443c0,0.374,0.323,0.694,0.699,0.694
						s0.698-0.32,0.698-0.694v-8.218c0-0.374-0.322-0.694-0.698-0.694s-0.699,0.32-0.699,0.694v1.334H3.174v-1.334
						c0-2.615,2.148-4.75,4.778-4.75c1.45,0,2.847,0.64,3.759,1.761c0.107,0.16,0.322,0.267,0.537,0.267h7.303v1.334h-6.175
						c-0.43,0-0.752,0.374-0.698,0.747c0,0.213,0.053,0.427,0.053,0.587v1.334h-1.342V14.92c0-0.374-0.323-0.694-0.698-0.694
						s-0.698,0.32-0.698,0.694v8.165c0,0.373,0.322,0.693,0.698,0.693s0.698-0.32,0.698-0.693v-5.39H13.429L13.429,17.695z
						 M5.214,6.168c0-1.495,1.234-2.722,2.738-2.722c1.504,0,2.739,1.227,2.739,2.722c0,1.494-1.235,2.722-2.739,2.722
						C6.449,8.89,5.214,7.662,5.214,6.168z"/>
					<path d="M14.771,21.109c0,0.374,0.322,0.695,0.698,0.695h14.39c0.377,0,0.699-0.321,0.699-0.695
						c0-0.372-0.322-0.693-0.699-0.693H15.47C15.094,20.416,14.771,20.737,14.771,21.109z"/>
					<rect x="16.167" y="5.474" width="1.343" height="1.334"/>
					<rect x="20.947" y="5.474" width="1.343" height="1.334"/>
					<rect x="25.725" y="5.474" width="1.343" height="1.334"/>
					<path d="M7.899,29.756c0.483-0.48,0.751-1.12,0.751-1.868c0-1.494-1.234-2.721-2.738-2.721c-1.504,0-2.739,1.227-2.739,2.721
						c0,0.748,0.269,1.388,0.751,1.868c-1.289,0.693-2.094,2.027-2.094,3.575v0.694c0,0.373,0.322,0.692,0.698,0.692h6.819
						c0.376,0,0.698-0.319,0.698-0.692v-0.694C9.993,31.838,9.134,30.503,7.899,29.756z M4.516,27.888
						c0-0.747,0.591-1.335,1.343-1.335c0.751,0,1.342,0.588,1.342,1.335c0,0.748-0.591,1.334-1.342,1.334
						C5.16,29.275,4.516,28.636,4.516,27.888z M3.174,33.331c0-1.493,1.235-2.722,2.739-2.722c1.503,0,2.738,1.229,2.738,2.722
						H3.174z"/>
					<path d="M20.195,29.756c0.482-0.48,0.752-1.12,0.752-1.868c0-1.494-1.236-2.721-2.739-2.721c-1.504,0-2.738,1.227-2.738,2.721
						c0,0.748,0.268,1.388,0.751,1.868c-1.288,0.693-2.148,2.027-2.148,3.575v0.694c0,0.373,0.322,0.692,0.698,0.692h6.819
						c0.376,0,0.699-0.319,0.699-0.692v-0.694C22.29,31.838,21.43,30.503,20.195,29.756z M16.865,27.888
						c0-0.747,0.59-1.335,1.343-1.335c0.751,0,1.343,0.588,1.343,1.335c0,0.748-0.592,1.334-1.343,1.334
						C17.456,29.222,16.865,28.636,16.865,27.888z M15.47,33.331c0-1.493,1.234-2.722,2.738-2.722c1.503,0,2.739,1.229,2.739,2.722
						H15.47z"/>
					<path d="M32.49,29.756c0.483-0.48,0.751-1.12,0.751-1.868c0-1.494-1.234-2.721-2.737-2.721s-2.739,1.227-2.739,2.721
						c0,0.748,0.27,1.388,0.753,1.868c-1.288,0.693-2.094,2.027-2.094,3.575v0.694c0,0.373,0.321,0.692,0.697,0.692h6.819
						c0.375,0,0.698-0.319,0.698-0.692v-0.694C34.639,31.838,33.778,30.503,32.49,29.756z M29.161,27.888
						c0-0.747,0.591-1.335,1.343-1.335c0.751,0,1.343,0.588,1.343,1.335c0,0.748-0.592,1.334-1.343,1.334
						C29.752,29.275,29.161,28.636,29.161,27.888z M27.765,33.331c0-1.493,1.236-2.722,2.739-2.722s2.737,1.229,2.737,2.722H27.765z
						"/>
				</g>
			</g>
			<g id="Layer_1_00000157271443066351491010000015405837796477412261_">
			</g>
		</g>
	</g>
</g>
</svg>
